<svg width="217" height="302" viewBox="0 0 217 302" fill="none" xmlns="http://www.w3.org/2000/svg">
	<g opacity="0.12" filter="url(#filter0_f)">
		<path d="M140.421 271.675C140.58 271.717 140.72 271.77 140.875 271.827L151.283 232.985L146.313 224.377L154.92 219.408L192.468 79.2805C188.043 78.0949 185.43 73.5484 186.612 69.1381L85.8663 42.1434C84.6807 46.5681 80.1341 49.1809 75.7238 47.9991L38.1806 188.112L43.1501 196.72L34.5427 201.689L24.1426 240.503C28.5674 241.688 31.184 246.22 29.9984 250.645L130.283 277.516C131.464 273.106 136.011 270.493 140.421 271.675Z" fill="#252525" />
	</g>
	<path d="M137.07 256.416C137.246 256.463 137.401 256.522 137.572 256.585L149.092 213.594L143.591 204.068L153.118 198.567L194.675 43.4754C189.777 42.1632 186.886 37.1311 188.194 32.2498L76.6893 2.3723C75.3771 7.26956 70.345 10.1613 65.4637 8.85339L23.9112 163.929L29.4114 173.456L19.8848 178.956L8.37404 221.915C13.2713 223.227 16.1674 228.243 14.8551 233.14L125.849 262.881C127.157 258 132.189 255.108 137.07 256.416Z" fill="#F05537" />
	<path d="M114.882 195.571L109.762 194.199L109.497 195.188L114.617 196.56L114.882 195.571Z" fill="white" />
	<path d="M125.14 198.32L120.02 196.948L119.755 197.937L124.875 199.309L125.14 198.32Z" fill="white" />
	<path d="M104.644 192.828L99.5234 191.456L99.2584 192.445L104.379 193.817L104.644 192.828Z" fill="white" />
	<path d="M143.593 204.051L144.523 203.514L140.535 202.445L140.27 203.434L143.764 204.37L143.593 204.051Z" fill="white" />
	<path d="M94.3901 190.081L89.2695 188.708L89.0045 189.698L94.1251 191.07L94.3901 190.081Z" fill="white" />
	<path d="M32.5941 174.582L32.8591 173.593L28.8711 172.524L29.4083 173.455L29.1006 173.646L32.5941 174.582Z" fill="white" />
	<path d="M135.402 201.069L130.281 199.697L130.016 200.686L135.137 202.058L135.402 201.069Z" fill="white" />
	<path d="M43.1049 176.339L37.9844 174.967L37.7194 175.956L42.8399 177.328L43.1049 176.339Z" fill="white" />
	<path d="M53.3628 179.087L48.2422 177.715L47.9772 178.704L53.0978 180.076L53.3628 179.087Z" fill="white" />
	<path d="M84.1245 187.332L79.0039 185.959L78.7389 186.948L83.8595 188.321L84.1245 187.332Z" fill="white" />
	<path d="M63.6167 181.834L58.4961 180.462L58.2311 181.451L63.3517 182.823L63.6167 181.834Z" fill="white" />
	<path d="M73.8706 184.583L68.75 183.211L68.485 184.2L73.6056 185.572L73.8706 184.583Z" fill="white" />
	<g clip-path="url(#clip0)">
		<path d="M128.187 229.07C128.939 229.106 129.67 229.353 130.287 229.78C130.905 230.207 131.382 230.796 131.659 231.473L124.628 231.124C125.217 229.846 126.596 228.991 128.187 229.07ZM130.652 235.379C129.932 235.963 129.002 236.259 128.048 236.208C126.447 236.129 125.097 235.126 124.566 233.778L131.618 234.128L132.767 234.185L134.964 234.294C135.065 233.866 135.12 233.428 135.128 232.987C135.199 229.343 132.117 226.234 128.245 226.042C124.374 225.851 121.178 228.648 121.107 232.291C121.037 235.935 124.118 239.044 127.99 239.236C130.271 239.349 132.317 238.424 133.628 236.9L130.652 235.379ZM113.866 235.266L116.293 226.208L114.24 225.658L115.067 222.572L117.12 223.122L118.258 218.874L121.745 219.808L120.606 224.056L123.225 224.757L122.398 227.844L119.779 227.142L117.352 236.201L113.866 235.266ZM107.206 233.482L110.573 234.384L113.827 222.239L110.461 221.337L107.206 233.482ZM111.165 216.959C111.466 215.835 112.622 215.241 113.827 215.564C115.031 215.887 115.708 216.972 115.407 218.096C115.106 219.221 113.97 219.847 112.766 219.524C111.561 219.202 110.863 218.084 111.165 216.959ZM109.28 221.057C107.535 220.681 106.453 220.661 105.23 221.097L105.52 220.013L102.155 219.112L98.9008 231.257L102.265 232.158L103.861 226.203C104.363 224.329 105.129 223.391 108.446 224.168L109.28 221.057ZM88.8504 222.26C88.4592 224.054 89.6807 225.975 91.6633 226.506C93.6743 227.045 95.7411 225.922 96.2369 224.071C96.7259 222.247 95.4973 220.241 93.4863 219.702C91.5042 219.171 89.4789 220.249 88.9272 221.973L88.8504 222.26ZM83.9915 227.262L88.7984 209.322L92.3594 209.499L90.3701 216.923C91.6226 216.409 92.9438 216.407 94.2849 216.767C98.1172 217.793 100.43 221.426 99.4849 224.952C98.547 228.452 94.715 230.493 90.8821 229.466C89.541 229.107 88.3977 228.445 87.5699 227.374L87.358 228.164L83.9914 227.262L83.9915 227.262ZM76.8255 225.342L79.2694 216.221L77.2164 215.671L78.0267 212.647L80.0797 213.197L81.2188 208.946L84.9062 209.128L83.5658 214.131L86.1843 214.832L85.374 217.856L82.7555 217.155L80.3116 226.276L76.8255 225.342ZM70.656 223.688L72.3947 217.2C73.0246 214.849 71.8199 213.978 70.4782 213.619C69.1371 213.26 67.666 213.386 67.0429 215.711L65.2906 222.251L61.9239 221.349L65.1781 209.204L68.5448 210.106L68.3027 211.009C69.1783 210.696 70.2461 210.325 72.026 210.802C74.8723 211.564 76.9184 213.784 75.8983 217.591L74.0227 224.591L70.656 223.688ZM55.9062 209.703C57.4972 209.782 58.8405 210.771 59.3781 212.106L52.3482 211.757C52.9361 210.478 54.3158 209.624 55.9062 209.703ZM58.3717 216.011C57.6519 216.595 56.7219 216.891 55.7679 216.84C55.0104 216.805 54.2753 216.555 53.6556 216.123C53.0359 215.69 52.5592 215.095 52.2858 214.411L59.3382 214.761L60.4868 214.818L62.683 214.927C62.7843 214.499 62.8395 214.06 62.8479 213.619C62.9182 209.976 59.8364 206.867 55.9648 206.675C52.093 206.483 48.897 209.281 48.8269 212.924C48.7566 216.567 51.8377 219.676 55.7099 219.869C57.9913 219.981 60.0374 219.056 61.3477 217.532L58.3717 216.011ZM39.6671 215.385L37.6926 201.839L41.3608 202.822L42.4663 211.946L48.0126 204.604L51.6807 205.587L43.1985 216.331L39.6671 215.385ZM30.3466 202.851C31.0993 202.886 31.8299 203.133 32.4474 203.56C33.0649 203.988 33.5419 204.577 33.8191 205.254L26.7885 204.905C27.3764 203.627 28.7561 202.772 30.3466 202.851ZM32.8122 209.159C32.0924 209.743 31.1623 210.04 30.2082 209.989C28.6078 209.909 27.257 208.908 26.7261 207.559L33.7785 207.909L34.9271 207.966L37.1235 208.075C37.2246 207.647 37.2798 207.209 37.2882 206.768C37.3585 203.124 34.2774 200.015 30.4052 199.823C26.5334 199.631 23.3384 202.43 23.2671 206.073C23.1968 209.716 26.2785 212.825 30.1502 213.017C32.4315 213.13 34.4777 212.205 35.7884 210.681L32.812 209.16L32.8122 209.159Z" fill="white" />
	</g>
	<defs>
		<filter id="filter0_f" x="0" y="18" width="216.612" height="283.783" filterUnits="userSpaceOnUse" color-interpolation-filters="sRGB">
			<feFlood flood-opacity="0" result="BackgroundImageFix" />
			<feBlend mode="normal" in="SourceGraphic" in2="BackgroundImageFix" result="shape" />
			<feGaussianBlur stdDeviation="11" result="effect1_foregroundBlur" />
		</filter>
		<clipPath id="clip0">
			<rect width="115.603" height="19.8176" fill="white" transform="translate(26.6719 191.889) rotate(15)" />
		</clipPath>
	</defs>
</svg>
